<svg id="Layer_1" data-name="Layer 1" xmlns="http://www.w3.org/2000/svg" viewBox="0 0 32.06 29.67"><path d="M920.55-32.74l-3.09,3.22a3.92,3.92,0,0,0,.09,5.51l8.16,8a3.92,3.92,0,0,0,6.2-.95l2.47-4.63A3.92,3.92,0,0,1,940-23l.21.14a3.92,3.92,0,0,0,6-2.86l.35-3.14a3.75,3.75,0,0,1,.2-.88l1.44-4a3.93,3.93,0,0,0-1.15-4.31l-.32-.27a3.92,3.92,0,0,0-5.4.29l-.2.22a3.93,3.93,0,0,1-6.26-.75l-.76-1.34a3.34,3.34,0,0,0-.37-.53l-2.15-2.64a3.93,3.93,0,0,0-3.51-1.41l-4.5.55a3.92,3.92,0,0,0-2.69,6.2h0A3.92,3.92,0,0,1,920.55-32.74Z" transform="translate(-916.37 44.55)"/></svg>